<?xml version="1.0" encoding="UTF-8" standalone="no"?>
<!-- Generator: Adobe Illustrator 21.0.1, SVG Export Plug-In . SVG Version: 6.00 Build 0)  -->

<svg
   xmlns:dc="http://purl.org/dc/elements/1.1/"
   xmlns:cc="http://creativecommons.org/ns#"
   xmlns:rdf="http://www.w3.org/1999/02/22-rdf-syntax-ns#"
   xmlns:svg="http://www.w3.org/2000/svg"
   xmlns="http://www.w3.org/2000/svg"
   xmlns:sodipodi="http://sodipodi.sourceforge.net/DTD/sodipodi-0.dtd"
   xmlns:inkscape="http://www.inkscape.org/namespaces/inkscape"
   version="1.1"
   id="Слой_1"
   x="0px"
   y="0px"
   viewBox="0 0 11.25 11.25"
   xml:space="preserve"
   sodipodi:docname="close.svg"
   width="11.25"
   height="11.25"
   inkscape:version="0.92.1 r15371"><metadata
     id="metadata19"><rdf:RDF><cc:Work
         rdf:about=""><dc:format>image/svg+xml</dc:format><dc:type
           rdf:resource="http://purl.org/dc/dcmitype/StillImage" /></cc:Work></rdf:RDF></metadata><defs
     id="defs17" /><sodipodi:namedview
     pagecolor="#ffffff"
     bordercolor="#666666"
     borderopacity="1"
     objecttolerance="10"
     gridtolerance="10"
     guidetolerance="10"
     inkscape:pageopacity="0"
     inkscape:pageshadow="2"
     inkscape:window-width="1920"
     inkscape:window-height="1017"
     id="namedview15"
     showgrid="false"
     inkscape:zoom="6.8"
     inkscape:cx="-0.37205882"
     inkscape:cy="-15.675"
     inkscape:window-x="-8"
     inkscape:window-y="-8"
     inkscape:window-maximized="1"
     inkscape:current-layer="Слой_1" /><style
     type="text/css"
     id="style10">
	.st0{fill:#FF4F2C;}
</style><path
     class="st0"
     d="m 6.725,5.625 4.3,-4.3 c 0.3,-0.3 0.3,-0.8 0,-1.1 -0.3,-0.3 -0.8,-0.3 -1.1,0 l -4.3,4.3 -4.3,-4.3 c -0.3,-0.3 -0.8,-0.3 -1.1,0 -0.3,0.3 -0.3,0.8 0,1.1 l 4.3,4.3 -4.3,4.3 c -0.3,0.3 -0.3,0.8 0,1.1 0.3,0.3 0.8,0.3 1.1,0 l 4.3,-4.3 4.3,4.3 c 0.3,0.3 0.8,0.3 1.1,0 0.3,-0.3 0.3,-0.8 0,-1.1 z"
     id="path12"
     inkscape:connector-curvature="0"
     style="fill:#ff4f2c" /><path
     style="fill:#b3b3b3;fill-opacity:1;stroke-width:0.14705883"
     d="m 0.30021009,10.958613 c -0.12710084,-0.1271 -0.23109244,-0.342975 -0.23109244,-0.47972 0,-0.136746 1.02484085,-1.2718692 2.27742425,-2.5224968 L 4.6239662,5.6825276 2.3465419,3.3889747 C 0.84358076,1.8753697 0.06911765,0.98926631 0.06911765,0.78325563 c 0,-0.29539864 0.48965059,-0.77002034 0.79440303,-0.77002034 0.0773986,0 1.18767392,1.03958691 2.46727842,2.31019311 L 5.6573529,4.6336213 7.9839068,2.3234284 C 9.2635113,1.0528222 10.388511,0.01323529 10.483907,0.01323529 c 0.224644,0 0.761681,0.53703672 0.761681,0.76168152 0,0.0953954 -1.039587,1.22039539 -2.3101929,2.49999999 L 6.6252022,5.6014706 8.9353951,7.9280244 c 1.2706059,1.2796046 2.3101929,2.3898796 2.3101929,2.4672786 0,0.304752 -0.474622,0.794403 -0.77002,0.794403 -0.206011,0 -1.0921142,-0.774463 -2.6057192,-2.2774244 L 5.5762959,6.6348574 3.3024274,8.9122816 C 2.0517997,10.164865 0.91667613,11.189706 0.77993066,11.189706 c -0.13674548,0 -0.35261973,-0.103992 -0.47972057,-0.231093 z"
     id="path4483"
     inkscape:connector-curvature="0" /><path
     style="fill:#999999;fill-opacity:1;stroke-width:0.14705883"
     d="M 0.36323529,10.895588 C 0.05806451,10.590417 0.05803087,10.588932 0.34728078,10.19121 0.50670441,9.9720003 1.5350718,8.9001841 2.6325416,7.8093962 3.7300113,6.7186081 4.6279412,5.7634232 4.6279412,5.6867632 c 0,-0.07666 -0.9926471,-1.1450745 -2.2058824,-2.3742544 C 1.1216828,1.9950431 0.21617647,0.96179419 0.21617647,0.79543587 c 0,-0.33297231 0.26756613,-0.63514175 0.56240771,-0.63514175 0.11520658,0 1.22956202,0.99264708 2.47634522,2.20588238 1.2467834,1.2132353 2.3478362,2.2058823 2.446784,2.2058823 0.098948,0 1.1708975,-0.992647 2.3821101,-2.2058823 1.2112127,-1.2132353 2.3056055,-2.20588238 2.4319845,-2.20588238 0.286855,0 0.582721,0.28555229 0.582721,0.5624077 0,0.11520659 -0.992647,1.22956198 -2.2058819,2.47634528 -1.2132353,1.2467833 -2.2058824,2.3278739 -2.2058824,2.4024235 0,0.074549 0.9926471,1.1556401 2.2058824,2.4024235 1.2132349,1.2467833 2.2058819,2.3611389 2.2058819,2.4763449 0,0.294842 -0.302169,0.562408 -0.635141,0.562408 -0.166359,0 -1.1996076,-0.905506 -2.5170733,-2.2058823 C 6.7171349,7.6235294 5.6487204,6.6308824 5.5720603,6.6308824 c -0.07666,0 -1.0318449,0.8979298 -2.1226329,1.9953995 -1.090788,1.0974699 -2.1626042,2.1258371 -2.3818137,2.2852611 -0.39772232,0.28925 -0.39920763,0.289216 -0.70437841,-0.01595 z"
     id="path4485"
     inkscape:connector-curvature="0" /><path
     style="fill:#808080;fill-opacity:1;stroke-width:0.14705883"
     d="m 0.39264706,10.866176 c -0.0970588,-0.09706 -0.17647059,-0.266706 -0.17647059,-0.376995 0,-0.110288 0.99891233,-1.2242672 2.21980513,-2.4755086 C 4.4103968,5.9901776 4.6339266,5.7110803 4.4580404,5.4889475 4.34928,5.3515903 3.4408069,4.3777018 2.4392113,3.3247506 0.2455021,1.0185617 0.13937441,0.87269966 0.35795762,0.46427321 c 0.0894766,-0.1671885 0.2202716,-0.30397909 0.29065563,-0.30397909 0.18537503,0 1.07821985,0.76876816 3.09681305,2.66645588 0.9780606,0.9194787 1.8419871,1.6940179 1.9198368,1.7211984 0.07785,0.02718 0.9848126,-0.7669372 2.0154732,-1.7647059 2.8403997,-2.74975278 2.7487647,-2.67653561 3.1087147,-2.48389604 0.169993,0.0909774 0.309078,0.22474883 0.309078,0.29726982 0,0.16002425 -1.052633,1.37272082 -2.9960796,3.45166252 L 6.6504871,5.6014706 8.1024494,7.1546624 c 1.9434466,2.0789417 2.9960796,3.2916386 2.9960796,3.4516626 0,0.07252 -0.13679,0.205064 -0.303979,0.294541 C 10.386124,11.119449 10.240262,11.013321 7.9340729,8.8196122 6.8811218,7.8180166 5.9072332,6.9095435 5.769876,6.8007831 5.5477432,6.6248969 5.2686459,6.8484268 3.2451512,8.8228419 1.9939097,10.043735 0.87993072,11.042647 0.76964221,11.042647 c -0.1102885,0 -0.27993633,-0.07941 -0.37699515,-0.176471 z"
     id="path4487"
     inkscape:connector-curvature="0" /><path
     style="fill:#808080;fill-opacity:1;stroke-width:0.14705883"
     d="M 0.36297365,10.74804 C 0.18728772,10.419768 0.32519918,10.248199 3.0444396,7.412144 3.8344831,6.5881613 4.4808824,5.8147112 4.4808824,5.6933659 4.4808824,5.5720206 3.7144037,4.6579528 2.7775965,3.6621043 0.50527565,1.2465727 0.3088551,0.98521734 0.42324979,0.5294326 0.47420612,0.32640644 0.56426921,0.16056757 0.62339,0.16090181 0.75187084,0.16162815 2.3004891,1.5051868 4.2501741,3.3074465 L 5.6661607,4.6163635 6.1717153,4.1897994 C 6.4497704,3.9551891 7.5057649,2.978275 8.5183697,2.0188791 10.118154,0.50315838 10.407904,0.28667943 10.728999,0.36726918 c 0.203242,0.0510104 0.36953,0.14176119 0.36953,0.20166848 0,0.11680933 -1.4132489,1.73870674 -3.2901315,3.77587794 l -1.157779,1.256655 1.157779,1.256655 c 1.8768826,2.0371712 3.2901315,3.6590684 3.2901315,3.7758784 0,0.224507 -0.725649,0.285017 -1.012078,0.08439 C 9.9254282,10.605614 8.8918825,9.6728719 7.7896825,8.6456384 6.6874825,7.6184049 5.6859781,6.7779412 5.5641172,6.7779412 c -0.1218609,0 -0.9283085,0.6799467 -1.7921059,1.5109928 -2.0723029,1.99373 -2.92956617,2.753713 -3.10619854,2.753713 -0.0798438,0 -0.21612136,-0.132573 -0.30283911,-0.294607 z"
     id="path4489"
     inkscape:connector-curvature="0" /></svg>