<?xml version="1.0" encoding="UTF-8"?>
<svg width="65px" height="60px" viewBox="0 0 65 60" version="1.1" xmlns="http://www.w3.org/2000/svg" xmlns:xlink="http://www.w3.org/1999/xlink">
    <!-- Generator: Sketch 50 (54983) - http://www.bohemiancoding.com/sketch -->
    <title>Confirm PO</title>
    <desc>Created with Sketch.</desc>
    <defs></defs>
    <g id="Page-1" stroke="none" stroke-width="1" fill="none" fill-rule="evenodd">
        <g id="My_Suppliers_Warehouse_icons-Copy-95" transform="translate(-927.000000, -536.000000)">
            <g id="Group-9" transform="translate(597.000000, 472.000000)">
                <g id="Confirm-PO" transform="translate(330.000000, 64.000000)">
                    <g id="-">
                        <path d="M55.8700698,20.0841791 L48.7593721,20.0841791 C48.150186,20.0841791 47.7438605,20.4862687 47.7438605,21.0880597 C47.7438605,21.6907463 48.150186,22.0931343 48.7593721,22.0931343 L55.8700698,22.0931343 C56.4792558,22.0931343 56.8855814,21.6907463 56.8855814,21.0880597 C56.8855814,20.4862687 56.4792558,20.0841791 55.8700698,20.0841791" id="Fill-1" fill="#BBBBBB"></path>
                        <path d="M55.8700698,28.118209 L48.7593721,28.118209 C48.150186,28.118209 47.7438605,28.5202985 47.7438605,29.1220896 C47.7438605,29.7250746 48.150186,30.1271642 48.7593721,30.1271642 L55.8700698,30.1271642 C56.4792558,30.1271642 56.8855814,29.7250746 56.8855814,29.1220896 C56.8855814,28.5202985 56.4792558,28.118209 55.8700698,28.118209" id="Fill-3" fill="#BBBBBB"></path>
                        <path d="M55.8700698,36.1522388 L48.7593721,36.1522388 C48.150186,36.1522388 47.7438605,36.5534328 47.7438605,37.1561194 C47.7438605,37.7591045 48.150186,38.16 48.7593721,38.16 L55.8700698,38.16 C56.4792558,38.16 56.8855814,37.7591045 56.8855814,37.1561194 C56.8855814,36.5534328 56.4792558,36.1522388 55.8700698,36.1522388" id="Fill-5" fill="#BBBBBB"></path>
                        <path d="M55.8700698,44.1862687 L48.7593721,44.1862687 C48.150186,44.1862687 47.7438605,44.5874627 47.7438605,45.1901493 C47.7438605,45.7919403 48.150186,46.1940299 48.7593721,46.1940299 L55.8700698,46.1940299 C56.4792558,46.1940299 56.8855814,45.7919403 56.8855814,45.1901493 C56.8855814,44.5874627 56.4792558,44.1862687 55.8700698,44.1862687" id="Fill-7" fill="#BBBBBB"></path>
                        <path d="M42.6644884,20.0841791 L35.554093,20.0841791 C34.9446047,20.0841791 34.5370698,20.4862687 34.5370698,21.0880597 C34.5370698,21.6907463 34.9446047,22.0931343 35.554093,22.0931343 L42.6644884,22.0931343 C43.2739767,22.0931343 43.68,21.6907463 43.68,21.0880597 C43.68,20.4862687 43.2739767,20.0841791 42.6644884,20.0841791" id="Fill-9" fill="#BBBBBB"></path>
                        <path d="M42.6644884,28.118209 L35.554093,28.118209 C34.9446047,28.118209 34.5370698,28.5202985 34.5370698,29.1220896 C34.5370698,29.7250746 34.9446047,30.1271642 35.554093,30.1271642 L42.6644884,30.1271642 C43.2739767,30.1271642 43.68,29.7250746 43.68,29.1220896 C43.68,28.5202985 43.2739767,28.118209 42.6644884,28.118209" id="Fill-11" fill="#BBBBBB"></path>
                        <path d="M29.458907,20.0841791 L22.3485116,20.0841791 C21.737814,20.0841791 21.3317907,20.4862687 21.3317907,21.0880597 C21.3317907,21.6907463 21.737814,22.0931343 22.3485116,22.0931343 L29.458907,22.0931343 C30.0683953,22.0931343 30.4747209,21.6907463 30.4747209,21.0880597 C30.4747209,20.4862687 30.0683953,20.0841791 29.458907,20.0841791" id="Fill-13" fill="#BBBBBB"></path>
                        <path d="M29.458907,28.118209 L22.3485116,28.118209 C21.737814,28.118209 21.3317907,28.5202985 21.3317907,29.1220896 C21.3317907,29.7250746 21.737814,30.1271642 22.3485116,30.1271642 L29.458907,30.1271642 C30.0683953,30.1271642 30.4747209,29.7250746 30.4747209,29.1220896 C30.4747209,28.5202985 30.0683953,28.118209 29.458907,28.118209" id="Fill-15" fill="#BBBBBB"></path>
                        <path d="M16.2536279,20.0841791 L9.14172093,20.0841791 C8.53253488,20.0841791 8.1262093,20.4862687 8.1262093,21.0880597 C8.1262093,21.6907463 8.53253488,22.0931343 9.14172093,22.0931343 L16.2536279,22.0931343 C16.862814,22.0931343 17.2691395,21.6907463 17.2691395,21.0880597 C17.2691395,20.4862687 16.862814,20.0841791 16.2536279,20.0841791" id="Fill-17" fill="#BBBBBB"></path>
                        <path d="M16.2536279,28.118209 L9.14172093,28.118209 C8.53253488,28.118209 8.1262093,28.5202985 8.1262093,29.1220896 C8.1262093,29.7250746 8.53253488,30.1271642 9.14172093,30.1271642 L16.2536279,30.1271642 C16.862814,30.1271642 17.2691395,29.7250746 17.2691395,29.1220896 C17.2691395,28.5202985 16.862814,28.118209 16.2536279,28.118209" id="Fill-19" fill="#BBBBBB"></path>
                        <path d="M16.2536279,36.1522388 L9.14172093,36.1522388 C8.53253488,36.1522388 8.1262093,36.5534328 8.1262093,37.1561194 C8.1262093,37.7591045 8.53253488,38.16 9.14172093,38.16 L16.2536279,38.16 C16.862814,38.16 17.2691395,37.7591045 17.2691395,37.1561194 C17.2691395,36.5534328 16.862814,36.1522388 16.2536279,36.1522388" id="Fill-21" fill="#BBBBBB"></path>
                        <path d="M16.2536279,44.1862687 L9.14172093,44.1862687 C8.53253488,44.1862687 8.1262093,44.5874627 8.1262093,45.1901493 C8.1262093,45.7919403 8.53253488,46.1940299 9.14172093,46.1940299 L16.2536279,46.1940299 C16.862814,46.1940299 17.2691395,45.7919403 17.2691395,45.1901493 C17.2691395,44.5874627 16.862814,44.1862687 16.2536279,44.1862687" id="Fill-23" fill="#BBBBBB"></path>
                        <path d="M16.2536279,44.1862687 L9.14172093,44.1862687 C8.53253488,44.1862687 8.1262093,44.5874627 8.1262093,45.1901493 C8.1262093,45.7919403 8.53253488,46.1940299 9.14172093,46.1940299 L16.2536279,46.1940299 C16.862814,46.1940299 17.2691395,45.7919403 17.2691395,45.1901493 C17.2691395,44.5874627 16.862814,44.1862687 16.2536279,44.1862687" id="Fill-25" fill="#BBBBBB"></path>
                        <path d="M59.0184884,52.2191045 L44.8989767,52.2191045 C45.7113256,50.5119403 46.2192326,48.6044776 46.2192326,46.6967164 C46.2192326,43.3826866 45.0005581,40.4701493 42.9692326,38.16 C43.3755581,38.0597015 43.68,37.658806 43.68,37.2564179 C43.68,36.6534328 43.2739767,36.2525373 42.6644884,36.2525373 L40.8351163,36.2525373 C38.6009302,34.6456716 35.8585349,33.641791 32.9120698,33.641791 C29.8652326,33.641791 27.0203488,34.6456716 24.7858605,36.3528358 C24.6842791,36.2525373 24.5826977,36.1522388 24.3798372,36.1522388 L22.3485116,36.1522388 C21.737814,36.1522388 21.3317907,36.5534328 21.3317907,37.1561194 C21.3317907,37.7591045 21.737814,38.16 22.3485116,38.16 L22.8564186,38.16 C20.9254651,40.4701493 19.7067907,43.3826866 19.7067907,46.6967164 C19.7067907,48.7047761 20.2143953,50.6122388 21.0270465,52.2191045 L6.90753488,52.2191045 C4.57146512,52.2191045 2.03132558,50.7125373 2.03132558,48.3023881 L2.03132558,14.0591045 L49.775186,14.0591045 C50.3843721,14.0591045 50.7906977,13.6579104 50.7906977,13.0552239 C50.7906977,12.4522388 50.3843721,12.0510448 49.775186,12.0510448 L2.03132558,12.0510448 L2.03132558,10.8453731 C2.03132558,8.43522388 4.46988372,6.02507463 6.90753488,6.02507463 L9.14172093,6.02507463 L9.14172093,9.03820896 C9.14172093,9.64089552 9.54925581,10.0420896 10.1587442,10.0420896 C10.7679302,10.0420896 11.1742558,9.64089552 11.1742558,9.03820896 L11.1742558,6.02507463 L21.3317907,6.02507463 L21.3317907,9.03820896 C21.3317907,9.64089552 21.737814,10.0420896 22.3485116,10.0420896 C22.958,10.0420896 23.3640233,9.64089552 23.3640233,9.03820896 L23.3640233,6.02507463 L32.5060465,6.02507463 L32.5060465,9.03820896 C32.5060465,9.64089552 32.9120698,10.0420896 33.5215581,10.0420896 C34.1310465,10.0420896 34.5370698,9.64089552 34.5370698,9.03820896 L34.5370698,6.02507463 L43.68,6.02507463 L43.68,9.03820896 C43.68,9.64089552 44.0863256,10.0420896 44.695814,10.0420896 C45.305,10.0420896 45.7113256,9.64089552 45.7113256,9.03820896 L45.7113256,6.02507463 L54.8542558,6.02507463 L54.8542558,9.03820896 C54.8542558,9.64089552 55.2605814,10.0420896 55.8700698,10.0420896 C56.4792558,10.0420896 56.8855814,9.64089552 56.8855814,9.03820896 L56.8855814,6.02507463 L59.0184884,6.02507463 C61.4570465,6.02507463 62.9804651,8.53552239 62.9804651,10.8453731 L62.9804651,12.0510448 L57.9013953,12.0510448 C57.291907,12.0510448 56.8855814,12.4522388 56.8855814,13.0552239 C56.8855814,13.6579104 57.291907,14.0591045 57.9013953,14.0591045 L62.9804651,14.0591045 L62.9804651,48.3023881 C62.9804651,50.7137313 61.4570465,52.2191045 59.0184884,52.2191045 M32.9120698,57.7426866 C26.7156047,57.7426866 21.6362326,52.721791 21.6362326,46.5964179 C21.6362326,40.4701493 26.7156047,35.4489552 32.9120698,35.4489552 C39.1085349,35.4489552 44.187907,40.4701493 44.187907,46.5964179 C44.187907,52.721791 39.1085349,57.7426866 32.9120698,57.7426866 M59.0184884,4.01701493 L56.8855814,4.01701493 L56.8855814,1.0041791 C56.8855814,0.40119403 56.4792558,0 55.8700698,0 C55.2605814,0 54.8542558,0.40119403 54.8542558,1.0041791 L54.8542558,4.01701493 L45.7113256,4.01701493 L45.7113256,1.0041791 C45.7113256,0.40119403 45.305,0 44.695814,0 C44.0863256,0 43.68,0.40119403 43.68,1.0041791 L43.68,4.01701493 L34.5370698,4.01701493 L34.5370698,1.0041791 C34.5370698,0.40119403 34.1310465,0 33.5215581,0 C32.9120698,0 32.5060465,0.40119403 32.5060465,1.0041791 L32.5060465,4.01701493 L23.3640233,4.01701493 L23.3640233,1.0041791 C23.3640233,0.40119403 22.958,0 22.3485116,0 C21.737814,0 21.3317907,0.40119403 21.3317907,1.0041791 L21.3317907,4.01701493 L11.1742558,4.01701493 L11.1742558,1.0041791 C11.1742558,0.40119403 10.7679302,0 10.1587442,0 C9.54925581,0 9.14172093,0.40119403 9.14172093,1.0041791 L9.14172093,4.01701493 L6.90753488,4.01701493 C3.3527907,4.01701493 0,7.33104478 0,10.8453731 L0,48.2020896 C0,51.918209 3.55595349,54.2280597 6.90753488,54.2280597 L22.1441395,54.2280597 C24.5826977,57.5420896 28.442186,59.7504478 32.9120698,59.7504478 C37.3819535,59.7504478 41.3442326,57.5420896 43.68,54.2280597 L58.916907,54.2280597 C62.4728605,54.2280597 64.9102093,51.8179104 64.9102093,48.3035821 L64.9102093,10.8453731 C65.0117907,7.53164179 62.6757209,4.01701493 59.0184884,4.01701493" id="Fill-27" fill="#BBBBBB"></path>
                        <path d="M32.9120698,57.7426866 C26.7156047,57.7426866 21.6362326,52.721791 21.6362326,46.5964179 C21.6362326,40.4701493 26.7156047,35.4489552 32.9120698,35.4489552 C39.1085349,35.4489552 44.187907,40.4701493 44.187907,46.5964179 C44.187907,52.721791 39.1085349,57.7426866 32.9120698,57.7426866 Z M44.8989767,52.2191045 C45.7113256,50.5119403 46.2192326,48.6044776 46.2192326,46.6967164 C46.2192326,43.3826866 45.0005581,40.4701493 42.9692326,38.16 L40.8351163,36.2525373 C38.6009302,34.6456716 35.8585349,33.641791 32.9120698,33.641791 C29.8652326,33.641791 27.0203488,34.6456716 24.7858605,36.3528358 C24.6842791,36.2525373 22.8564186,38.16 22.8564186,38.16 C20.9254651,40.4701493 19.7067907,43.3826866 19.7067907,46.6967164 C19.7067907,48.7047761 20.2143953,50.6122388 21.0270465,52.2191045 L22.1441395,54.2280597 C24.5826977,57.5420896 28.442186,59.7504478 32.9120698,59.7504478 C37.3819535,59.7504478 41.3442326,57.5420896 43.68,54.2280597 L44.8989767,52.2191045 Z" id="Fill-29" fill="#F05031"></path>
                        <path d="M40.9366977,41.9764179 C40.5303721,41.5743284 39.921186,41.5743284 39.5148605,41.9764179 L32.0997209,49.3074627 L27.8326977,45.0898507 C27.4266744,44.6877612 26.817186,44.6877612 26.4108605,45.0898507 C26.0048372,45.4910448 26.0048372,46.0937313 26.4108605,46.4949254 L31.3886512,51.4158209 C31.591814,51.6161194 31.8965581,51.7176119 32.0997209,51.7176119 C32.3028837,51.7176119 32.6073256,51.6161194 32.8104884,51.4158209 L40.9366977,43.3826866 C41.2414419,42.980597 41.2414419,42.3776119 40.9366977,41.9764179" id="Fill-31" fill="#F05031"></path>
                    </g>
                </g>
            </g>
        </g>
    </g>
</svg>